<svg t="1678348810519" class="icon" viewBox="0 0 1024 1024" version="1.1" xmlns="http://www.w3.org/2000/svg" p-id="4588" width="200" height="200"><path d="M157.340444 503.822222c-3.413333 4.892444-3.413333 11.448889 0 16.312889l159.288889 227.555556c2.673778 3.797333 7.011556 6.072889 11.662223 6.072889h539.278222c7.822222 0 14.222222-6.371556 14.222222-14.222223v-455.111111c0-7.850667-6.4-14.222222-14.222222-14.222222H328.305778c-4.664889 0-9.002667 2.275556-11.690667 6.072889L157.340444 503.822222z m710.229334 335.274667H328.305778a99.669333 99.669333 0 0 1-81.564445-42.453333l-159.303111-227.555556a99.896889 99.896889 0 0 1 0-114.176v-0.014222l159.288889-227.555556a99.697778 99.697778 0 0 1 81.578667-42.467555H867.555556c54.897778 0 99.555556 44.657778 99.555555 99.555555v455.111111c0 54.897778-44.657778 99.555556-99.555555 99.555556z" fill="#ffffff" p-id="4589"></path><path d="M695.850667 675.328a42.524444 42.524444 0 0 1-30.165334-12.501333l-241.365333-241.351111a42.638222 42.638222 0 0 1 0-60.344889 42.638222 42.638222 0 0 1 60.330667 0l241.351111 241.365333a42.638222 42.638222 0 0 1-30.151111 72.832" fill="#ffffff" p-id="4590"></path><path d="M454.485333 675.328a42.638222 42.638222 0 0 1-30.165333-72.832l241.365333-241.351111a42.638222 42.638222 0 0 1 60.330667 0 42.638222 42.638222 0 0 1 0 60.316444l-241.351111 241.365334a42.524444 42.524444 0 0 1-30.179556 12.515555" fill="#ffffff" p-id="4591"></path></svg>
