<svg width="129" height="118" viewBox="0 0 129 118" fill="none" xmlns="http://www.w3.org/2000/svg">
<g id="Group 427320682">
<path id="Background" opacity="0.2" d="M57.5 118C89.2564 118 115 92.2562 115 60.4999C115 28.7435 89.2564 2.99988 57.5 2.99988C25.7436 2.99988 0 28.7435 0 60.4999C0 92.2562 25.7436 118 57.5 118Z" fill="#F2F2F2"/>
<g id="Lines">
<path id="Vector" fill-rule="evenodd" clip-rule="evenodd" d="M106.322 19.4056C107.388 16.6999 107.704 13.9992 108.167 11.172C108.257 10.6199 107.882 10.1005 107.33 10.0095C106.778 9.91848 106.256 10.2939 106.166 10.846C105.727 13.5268 105.447 16.0964 104.435 18.6666C104.231 19.1864 104.488 19.7749 105.009 19.9773C105.529 20.183 106.118 19.9255 106.322 19.4056Z" fill="#A4DDC6"/>
<path id="Vector_2" fill-rule="evenodd" clip-rule="evenodd" d="M111.459 25.6144C116.714 21.9746 121.861 17.0763 125.688 11.9467C126.022 11.4985 125.929 10.864 125.48 10.5318C125.03 10.1997 124.395 10.2913 124.061 10.7394C120.361 15.6991 115.382 20.4365 110.302 23.9535C109.842 24.2726 109.729 24.9032 110.048 25.3608C110.368 25.8183 111 25.9335 111.459 25.6144Z" fill="#A4DDC6"/>
<path id="Vector_3" fill-rule="evenodd" clip-rule="evenodd" d="M112.021 30.4349C116.209 31.7134 120.784 31.103 124.906 29.9253C125.444 29.7696 125.755 29.2097 125.601 28.6757C125.447 28.1384 124.884 27.8285 124.347 27.9807C120.593 29.0548 116.427 29.6659 112.613 28.502C112.078 28.3385 111.511 28.6397 111.347 29.172C111.184 29.7041 111.486 30.2714 112.021 30.4349Z" fill="#A4DDC6"/>
<path id="Star " d="M50.5379 21.1834C50.2756 20.0969 48.7303 20.0969 48.4681 21.1834L48.1284 22.5906C48.0346 22.9788 47.7315 23.282 47.3433 23.3757L45.936 23.7154C44.8496 23.9777 44.8496 25.523 45.936 25.7852L47.3433 26.1249C47.7315 26.2187 48.0346 26.5218 48.1284 26.91L48.4681 28.3173C48.7303 29.4037 50.2756 29.4037 50.5379 28.3173L50.8776 26.91C50.9713 26.5218 51.2745 26.2187 51.6627 26.1249L53.0699 25.7852C54.1564 25.523 54.1564 23.9777 53.0699 23.7154L51.6627 23.3757C51.2745 23.282 50.9713 22.9788 50.8776 22.5906L50.5379 21.1834Z" fill="#FF8F6B"/>
<circle id="Ellipse 67" cx="95.8685" cy="95.9452" r="3.04034" fill="#FF8F6B"/>
</g>
<g id="Message illustration">
<path id="Vector right" d="M37.5162 54.4427C38.1719 49.5314 40.0569 44.8669 42.9954 40.884C45.9338 36.9012 49.8299 33.7299 54.3203 31.6661C58.8107 29.6022 63.7489 28.713 68.6745 29.0813C73.6 29.4496 78.3523 31.0636 82.488 33.7726L93.7559 29.9297C94.0958 29.8173 94.4606 29.8049 94.8073 29.894C95.154 29.9831 95.4681 30.1699 95.7122 30.4324C95.9564 30.6949 96.1206 31.022 96.1853 31.3751C96.25 31.7283 96.2126 32.0926 96.0774 32.425L91.5587 43.2384C93.962 47.2549 95.3713 51.7906 95.6686 56.4657C95.9659 61.1409 95.1426 65.8194 93.2675 70.1098C91.3925 74.4002 88.5204 78.1776 84.8914 81.1258C81.2625 84.074 76.9825 86.1072 72.4095 87.0553C67.8365 88.0034 63.1037 87.8387 58.6072 86.5751C54.1106 85.3115 49.9812 82.9857 46.5646 79.7924C43.148 76.5991 40.5436 72.6312 38.9693 68.2208C37.395 63.8105 36.8967 59.0859 37.5162 54.4427Z" fill="#C0EBDA"/>
<path id="Vector left" d="M18.2583 67.5528C18.9141 72.464 20.7991 77.1286 23.7375 81.1114C26.676 85.0943 30.5721 88.2655 35.0625 90.3294C39.5529 92.3933 44.4911 93.2825 49.4167 92.9142C54.3422 92.5458 59.0945 90.9319 63.2302 88.2229L74.4981 92.0658C74.838 92.1782 75.2028 92.1906 75.5495 92.1015C75.8962 92.0124 76.2102 91.8256 76.4544 91.5631C76.6986 91.3006 76.8628 90.9735 76.9275 90.6203C76.9922 90.2672 76.9548 89.9029 76.8196 89.5704L72.3009 78.7571C74.7042 74.7405 76.1134 70.2049 76.4107 65.5297C76.7081 60.8546 75.8847 56.1761 74.0097 51.8857C72.1347 47.5953 69.2625 43.8179 65.6336 40.8697C62.0047 37.9215 57.7247 35.8883 53.1517 34.9402C48.5787 33.9921 43.8459 34.1567 39.3494 35.4203C34.8528 36.6839 30.7234 39.0097 27.3068 42.203C23.8902 45.3964 21.2857 49.3643 19.7115 53.7746C18.1372 58.185 17.6389 62.9096 18.2583 67.5528Z" fill="#17CB9E"/>
<g id="Face">
<path id="Smile" fill-rule="evenodd" clip-rule="evenodd" d="M41.9404 72.2563C41.9404 68.5342 44.6687 65.8117 47.6859 65.8117C50.7031 65.8117 53.4313 68.5342 53.4313 72.2563H57.3229C57.3229 66.7106 53.1642 61.9201 47.6859 61.9201C42.2076 61.9201 38.0488 66.7106 38.0488 72.2563H41.9404Z" fill="white"/>
<path id="Left" d="M37.1982 61.7679C39.129 61.7679 40.6942 60.2027 40.6942 58.2719C40.6942 56.3411 39.129 54.7759 37.1982 54.7759C35.2674 54.7759 33.7021 56.3411 33.7021 58.2719C33.7021 60.2027 35.2674 61.7679 37.1982 61.7679Z" fill="white"/>
<path id="Right" d="M58.1747 61.7682C60.1055 61.7682 61.6708 60.2029 61.6708 58.2721C61.6708 56.3413 60.1055 54.7761 58.1747 54.7761C56.2439 54.7761 54.6787 56.3413 54.6787 58.2721C54.6787 60.2029 56.2439 61.7682 58.1747 61.7682Z" fill="white"/>
</g>
</g>
</g>
</svg>
